<svg width="35" height="35" viewBox="0 0 35 35" fill="none" xmlns="http://www.w3.org/2000/svg">
<g id="Eyes Search Icon">
<path id="Vector" d="M17.5 35C27.165 35 35 27.165 35 17.5C35 7.83502 27.165 0 17.5 0C7.83502 0 0 7.83502 0 17.5C0 27.165 7.83502 35 17.5 35Z" fill="#4DE1D4"/>
<g id="Group">
<g id="Group_2">
<path id="Vector_2" d="M30.8496 17.5C30.8496 17.5 24.8728 23.9966 17.5001 23.9966C10.1274 23.9966 4.15051 17.5 4.15051 17.5C4.15051 17.5 10.1274 11.0034 17.5001 11.0034C24.8729 11.0034 30.8496 17.5 30.8496 17.5Z" fill="#FEF8DE"/>
<g id="Group_3">
<path id="Vector_3" d="M17.5001 24.1891C21.1944 24.1891 24.1892 21.1943 24.1892 17.5C24.1892 13.8057 21.1944 10.8109 17.5001 10.8109C13.8058 10.8109 10.811 13.8057 10.811 17.5C10.811 21.1943 13.8058 24.1891 17.5001 24.1891Z" fill="#4BBDB6"/>
<path id="Vector_4" d="M17.5 23.1809C20.6375 23.1809 23.181 20.6375 23.181 17.5C23.181 14.3625 20.6375 11.819 17.5 11.819C14.3625 11.819 11.8191 14.3625 11.8191 17.5C11.8191 20.6375 14.3625 23.1809 17.5 23.1809Z" fill="#70CDD3"/>
<g id="Group_4">
<path id="Vector_5" opacity="0.2" d="M17.4911 17.4773L15.3931 12.2241C13.9303 12.8082 12.8452 13.9323 12.2736 15.2754L17.4684 17.4863L17.4911 17.4773Z" fill="white"/>
<path id="Vector_6" opacity="0.2" d="M22.766 15.3705C22.1812 13.9234 21.0668 12.8479 19.7357 12.2778L17.5293 17.4621L22.766 15.3705Z" fill="white"/>
<path id="Vector_7" opacity="0.2" d="M17.5001 17.4999L17.4683 17.4864L12.2158 19.5842C12.2188 19.5918 12.2212 19.5994 12.2243 19.607C12.8099 21.0735 13.9386 22.1609 15.2867 22.7313L17.5064 17.5158L17.5001 17.4999Z" fill="white"/>
<path id="Vector_8" opacity="0.2" d="M17.5111 17.5047L17.5064 17.5157L19.6071 22.7755C21.0697 22.1914 22.1552 21.0675 22.7268 19.7245L17.5111 17.5047Z" fill="white"/>
</g>
</g>
</g>
<g id="Group_5">
<path id="Vector_9" d="M31.5194 16.8834C31.4553 16.8136 29.9243 15.1616 27.4475 13.4961C24.1362 11.2701 20.6966 10.093 17.5001 10.093C15.4831 10.093 13.3703 10.5616 11.2535 11.4664C10.0155 11.996 8.77502 12.6744 7.55276 13.4961C6.49914 14.2046 5.61573 14.9115 4.94444 15.4941C4.03806 16.2809 3.51798 16.843 3.4808 16.8834L2.91321 17.5L3.4808 18.1167C3.54492 18.1864 5.07583 19.8385 7.55276 21.5041C10.864 23.73 14.3036 24.9071 17.5001 24.9071C20.6966 24.9071 24.1361 23.73 27.4475 21.5041C29.9243 19.8385 31.4554 18.1864 31.5194 18.1167L32.087 17.5L31.5194 16.8834ZM17.5001 23.0864C11.9384 23.0864 7.11423 19.0674 5.44401 17.4993C5.88253 17.0869 6.53796 16.5059 7.36682 15.8734C8.74105 14.8238 10.5934 13.6332 12.7267 12.8336C14.2047 12.2794 15.8172 11.9137 17.5001 11.9137C23.0619 11.9137 27.8859 15.9327 29.5561 17.5009C27.8883 19.0698 23.0754 23.0864 17.5001 23.0864Z" fill="#4D4C4D"/>
<g id="Group_6">
<path id="Vector_10" d="M19.5001 19.5914C20.6552 19.5914 21.5915 18.655 21.5915 17.5C21.5915 16.3449 20.6552 15.4085 19.5001 15.4085C18.345 15.4085 17.4086 16.3449 17.4086 17.5C17.4086 18.655 18.345 19.5914 19.5001 19.5914Z" fill="#4D4C4D"/>
</g>
<path id="Vector_11" d="M21.3927 16.6097C21.374 17.7486 20.4455 18.6661 19.3022 18.6661C18.4655 18.6661 17.7439 18.1747 17.4095 17.4649C17.4093 17.4767 17.4086 17.4883 17.4086 17.5001C17.4086 18.6551 18.3449 19.5915 19.5001 19.5915C20.6552 19.5915 21.5915 18.6552 21.5915 17.5001C21.5915 17.1815 21.52 16.8799 21.3927 16.6097Z" fill="#F1F1F1"/>
<path id="Vector_12" opacity="0.4" d="M17.5 17.5L7.36672 15.8733L4.94434 15.4941C5.61563 14.9114 6.49903 14.2045 7.55266 13.4961C8.77492 12.6744 10.0154 11.996 11.2534 11.4664L12.7266 12.8335L17.5 17.5Z" fill="white"/>
</g>
</g>
</g>
</svg>
