<svg width="82" height="78" viewBox="0 0 82 78" fill="none" xmlns="http://www.w3.org/2000/svg">
<g id="Team Icon" clip-path="url(#clip0_34_134)">
<g id="row_4">
<g id="teamwork">
<path id="Vector" d="M64.2568 31.7054C64.2951 31.5784 64.416 31.4072 64.4987 31.3629C64.9058 30.9319 65.4016 30.6661 66.0302 30.6482C66.7415 30.5861 67.509 31.0256 67.819 31.604C68.2177 32.3476 68.2356 32.9762 67.9613 33.6551C67.8787 33.6994 67.923 33.7821 67.8404 33.8263C66.8846 35.6152 65.8403 37.2387 64.7134 38.9066C66.1061 37.7345 67.4545 36.4798 68.3336 34.9448C68.6138 34.4754 69.0653 34.127 69.6496 34.0265C70.5261 33.8757 71.3822 34.4805 71.6982 35.2684C71.7868 35.4337 71.7928 35.6432 71.7988 35.8528C71.849 36.145 71.7724 36.3988 71.6131 36.6969C69.5423 40.5727 66.2407 43.9383 62.6734 46.8081C61.198 48.0245 59.5898 48.993 57.893 49.7963C55.4909 50.8713 53.3486 52.2325 51.2506 53.6764C47.0546 56.564 40.8466 62.445 36.2145 67.694C30.9077 66.9223 25.9841 64.8814 21.6978 61.6479C23.5479 60.337 26.6434 58.5711 28.3283 57.3487C30.5856 55.6068 32.7602 53.9091 34.9349 52.2114C40.3464 47.8211 43.7681 41.3064 44.4095 34.3675C45.3865 34.801 46.3636 35.2346 47.258 35.7125C49.9957 31.6919 53.3739 28.0725 57.0563 24.8219C57.1389 24.7776 57.1389 24.7776 57.2215 24.7333C57.5904 24.4292 58.1304 24.2461 58.8034 24.3108C59.5206 24.4582 60.0785 24.9037 60.3886 25.482C60.6987 26.0604 60.5896 26.6507 60.4363 27.1584C60.398 27.2853 60.3597 27.4122 60.277 27.4565C58.9584 29.759 57.507 31.8136 55.9729 33.9125C57.9704 31.8843 59.8469 30.0273 61.4576 27.6746C61.8205 27.1609 62.3546 26.7683 63.1102 26.7887C63.8214 26.7265 64.5063 27.2103 64.899 27.7444C65.336 28.3611 65.3155 29.1167 65.0413 29.7956C65.0029 29.9225 64.9203 29.9668 64.882 30.0937C63.4424 32.5674 61.9203 35.0854 60.1826 37.3998C61.5957 35.4721 63.0975 33.7097 64.2568 31.7054Z" fill="#A571F1"/>
<path id="Vector_2" d="M55.5028 51.2904C55.8069 51.6593 55.8632 52.161 55.7098 52.6687C55.5241 53.5128 54.7039 54.1653 53.8657 54.1892C53.3197 54.1628 52.8503 53.8825 52.4193 53.4754C51.2472 52.0827 49.7505 51.0767 48.2096 49.9881C49.5529 51.5017 50.8136 53.0597 52.0743 54.6177C52.1186 54.7003 52.1186 54.7003 52.1629 54.7829C52.5556 55.317 52.6621 56.1109 52.3052 56.8341C52.0309 57.513 51.3316 57.9943 50.6203 58.0564C49.9916 58.0743 49.357 57.8827 48.9703 57.5582C48.7991 57.4372 48.7548 57.3546 48.6662 57.1893C47.1457 55.3452 45.4659 53.7991 43.6592 52.2148C45.7317 54.2949 47.518 56.6348 49.3426 58.8478C49.3869 58.9304 49.4312 59.013 49.5581 59.0514C49.8681 59.6298 50.013 60.2967 49.7004 61.1025C49.4261 61.7814 48.8094 62.2184 48.0981 62.2806C47.3868 62.3428 46.7079 62.0685 46.3152 61.5344C44.408 59.3657 42.2648 57.749 39.9504 56.0113C41.8074 57.8879 43.4548 59.7704 45.1082 61.8624C45.1525 61.945 45.2411 62.1103 45.368 62.1486C45.6338 62.6444 45.7343 63.2287 45.6253 63.819C45.472 64.3267 45.1091 64.8404 44.4864 65.0678C44.4038 65.1121 44.3212 65.1564 44.2386 65.2007C43.6159 65.4281 43.1082 65.2748 42.6388 64.9946C42.5945 64.9119 42.5119 64.9562 42.4676 64.8736C38.1932 62.0592 34.199 58.7755 30.7772 54.9722C30.0396 55.5804 29.2193 56.2329 28.4373 56.7585C26.7353 50.0121 22.4983 44.0929 16.4794 40.4054C13.9614 38.8833 11.4877 37.4437 9.01402 36.0042C9.09234 31.3882 10.1801 26.8693 12.1179 22.7457C17.9129 27.4042 26.949 33.9418 32.525 36.803C34.8658 37.9946 37.1623 39.1037 39.7007 39.8703C41.5219 40.4895 43.3047 41.2357 44.884 42.1974C49.0256 44.7639 52.8426 47.7171 55.5028 51.2904Z" fill="#EA64D7"/>
<path id="Vector_3" d="M59.1448 11.2568C57.2947 12.5677 54.6302 14.7407 52.9453 15.9631C50.7707 17.6608 48.596 19.3585 46.4213 21.0562C41.0098 25.4465 37.5881 31.9612 36.9911 38.9827C36.014 38.5491 35.037 38.1156 34.1426 37.6377C31.3606 41.5757 28.0266 45.2777 24.3 48.4456C24.2173 48.4899 24.2173 48.4899 24.1347 48.5342C23.7659 48.8383 23.2258 49.0215 22.5529 48.9567C21.8357 48.8094 21.2777 48.3639 20.9676 47.7855C20.7845 47.2455 20.7666 46.6168 21.0026 46.0648C21.0409 45.9379 21.1235 45.8936 21.1618 45.7667C22.5247 43.5469 23.9319 41.4097 25.466 39.3108C23.4685 41.339 21.592 43.1959 19.9812 45.5487C19.6184 46.0623 19.0843 46.455 18.3287 46.4346C17.6174 46.4967 16.9769 46.0955 16.5399 45.4788C16.1029 44.8621 16.1233 44.1066 16.3976 43.4277C16.4359 43.3007 16.5186 43.2565 16.5569 43.1295C17.9964 40.6558 19.5186 38.1379 21.2563 35.8235C19.7546 37.5859 18.2528 39.3483 17.0109 41.3969C16.9726 41.5239 16.8516 41.6951 16.769 41.7394C16.3618 42.1704 15.8661 42.4362 15.2374 42.4541C14.4819 42.4336 13.7587 42.0767 13.4043 41.4157C13.05 40.7547 12.9878 40.0434 13.262 39.3645C13.3447 39.3202 13.3004 39.2376 13.383 39.1933C14.3387 37.4045 15.4657 35.7366 16.51 34.1131C15.1173 35.2852 13.7688 36.5399 12.8898 38.0749C12.6095 38.5442 12.1581 38.8926 11.5737 38.9932C10.6972 39.1439 9.88544 38.6218 9.52512 37.7512C9.43653 37.586 9.43056 37.3764 9.4246 37.1669C9.37434 36.8747 9.451 36.6209 9.61029 36.3227C11.681 32.447 14.9826 29.0814 18.55 26.2116C20.0253 24.9952 21.6335 24.0267 23.3304 23.2234C25.7325 22.1484 27.8748 20.7872 29.9728 19.3433C34.2071 16.3287 40.3325 10.492 44.7993 5.33167C50.0678 6.23029 54.947 8.18857 59.1448 11.2568Z" fill="#4DE1D4"/>
<g id="Group">
<path id="Vector_4" d="M68.4162 34.9005C68.118 34.7413 67.8199 34.582 67.5218 34.4227C66.6427 35.9577 65.7637 37.4926 64.7134 38.9067C66.1061 37.7345 67.4545 36.4798 68.4162 34.9005Z" fill="#935F2F"/>
<path id="Vector_5" d="M63.5071 31.8945C62.4688 33.7276 61.3035 35.5224 60.094 37.2346C61.4748 35.6434 62.8555 34.0522 63.9765 32.1748C63.8496 32.1364 63.6784 32.0155 63.5071 31.8945Z" fill="#935F2F"/>
<path id="Vector_6" d="M60.0326 29.1832C59.8171 28.9796 59.6015 28.776 59.3417 28.4898C58.2208 30.3672 57.0112 32.0794 55.719 33.8359C57.271 32.3656 58.7787 30.8127 60.0326 29.1832Z" fill="#935F2F"/>
<path id="Vector_7" d="M36.1298 30.8283C37.7534 31.8726 39.5362 32.6188 41.3131 33.1554C43.3438 33.7687 45.2979 34.6358 47.1694 35.5473C49.8687 31.6536 53.0434 28.2497 56.5605 25.0877C54.724 22.4556 53.3389 19.4751 52.5765 16.2672C51.8388 16.8754 50.9743 17.4453 50.2366 18.0535C46.7322 14.2945 42.8649 11.0491 38.5462 8.1521C38.5019 8.06948 38.4193 8.11377 38.375 8.03115C37.9056 7.75091 37.3979 7.59758 36.7753 7.82502C36.6926 7.86932 36.5274 7.95791 36.4448 8.0022C35.949 8.26797 35.5418 8.699 35.3885 9.20668C35.1969 9.84128 35.2974 10.4256 35.6458 10.8771C35.6901 10.9597 35.7787 11.125 35.823 11.2076C37.4764 13.2996 39.2064 15.1378 41.0634 17.0144C38.8316 15.2324 36.6058 13.66 34.6986 11.4913C34.2232 11.0015 33.627 10.6829 32.9157 10.7451C32.2044 10.8073 31.5877 11.2443 31.3135 11.9232C30.9566 12.6464 31.1457 13.3959 31.4557 13.9743C31.5 14.057 31.5443 14.1396 31.6712 14.1779C33.5401 16.4735 35.2821 18.7308 37.3546 20.8109C35.5922 19.3092 33.7855 17.7248 32.3476 15.8364C32.259 15.6711 32.2147 15.5885 32.0435 15.4676C31.6125 15.0604 31.0605 14.8244 30.3935 14.9693C29.6882 15.241 29.0715 15.678 28.7146 16.4012C28.4403 17.0801 28.5468 17.874 28.9395 18.408C28.9838 18.4907 28.9838 18.4907 29.0281 18.5733C30.2062 20.1756 31.5495 21.6892 32.8928 23.2029C31.3962 22.1969 29.8552 21.1083 28.6831 19.7156C28.379 19.3468 27.8654 18.9839 27.2367 19.0018C26.3543 18.943 25.534 19.5955 25.3926 20.5223C25.3219 20.9857 25.3781 21.4874 25.5996 21.9005C28.3867 25.5122 32.2038 28.4654 36.1298 30.8283Z" fill="#fcc904"/>
<path id="Vector_8" d="M63.6972 45.9401C65.6249 47.3533 67.5083 48.6838 69.0109 49.8993C70.8661 45.8199 71.9155 41.428 71.9555 36.9389C71.8286 36.9006 71.6574 36.7796 71.5304 36.7413C69.7842 40.2303 66.8515 43.2918 63.6972 45.9401Z" fill="#fcc904"/>
</g>
</g>
</g>
</g>
<defs>
<clipPath id="clip0_34_134">
<rect width="60" height="60" fill="white" transform="translate(0 24.3489) rotate(-28.1955)"/>
</clipPath>
</defs>
</svg>
