<svg enable-background="new 0 0 128 128" 
height="50px" version="1.1" viewBox="0 0 128 128" width="50px" 
xml:space="preserve" xmlns="http://www.w3.org/2000/svg" xmlns:xlink="http://www.w3.org/1999/xlink">

<g id="Layer_2"/>
<g id="Layer_1"><g>

<path d="M77,88.119C77,90.263,75.263,92,73.119,92H28.881C26.737,92,25,90.263,25,88.119v-0.238    C25,85.737,26.737,84,28.881,84h44.238C75.263,84,77,85.737,77,87.881V88.119z" fill="#fff"/>
<path d="M103,64.119c0,2.144-1.737,3.881-3.881,3.881H28.881C26.737,68,25,66.263,25,64.119v-0.238    C25,61.737,26.737,60,28.881,60h70.238c2.144,0,3.881,1.737,3.881,3.881V64.119z" fill="#fff"/>
<path d="M103,40.119c0,2.144-1.737,3.881-3.881,3.881H28.881C26.737,44,25,42.263,25,40.119v-0.238    C25,37.737,26.737,36,28.881,36h70.238c2.144,0,3.881,1.737,3.881,3.881V40.119z" fill="#fff"/></g>
<path d="M92.45,79.854C91.094,78.844,89,79.417,89,81.25s0,12.026,0,13.859c0,1.834,2.094,2.227,3.45,1.216   c0.701-0.522,6.669-4.455,9.532-6.724c1.192-0.945,1.192-2.241,0.001-3.164C99.121,84.222,93.15,80.377,92.45,79.854z" fill="#fff"/></g>
</svg>

