<?xml version="1.0" encoding="UTF-8"?><svg id="Layer_1" xmlns="http://www.w3.org/2000/svg" viewBox="0 0 800 400"><defs><style>.cls-1{fill:#fff;}</style></defs><path class="cls-1" d="m211.52,43.6v28.27c0,7.29-2.34,11.66-7.8,11.67-5.46,0-7.8-4.37-7.8-11.67v-28.27h-15.53v29.34c0,15.34,9.33,21.68,23.34,21.68,11.54,0,23.33-6.34,23.33-21.68v-29.34h-15.53Z"/><path class="cls-1" d="m92.8,83.54c-6.61,0-10.21-6.46-10.21-14.98,0-7.4,2.82-15,10.22-15s9.86,7.56,9.86,14.92c0,9-3.82,15.05-9.88,15.05m.46-41.06c-16.04,0-26.66,10.33-26.66,26.44s11.25,25.7,25.76,25.7c13.38,0,26.29-8.33,26.29-26.57,0-15.07-10.15-25.57-25.4-25.57"/><path class="cls-1" d="m36.29,83.76c-6.61,0-10.21-6.46-10.21-14.98,0-7.4,2.82-15,10.23-15s9.86,7.56,9.86,14.92c0,9-3.83,15.06-9.88,15.06m19.29-43.65c-5.21,3.55-6.56,9-6.56,9-2.86-3.55-8.67-6.41-15.52-6.41-11.45,0-23.4,10.19-23.4,26.29,0,14.28,10.06,25.27,23.4,25.27,5.49,0,9.23-1.37,12.16-4.29v1.06c0,9.07-5.61,13.14-12.94,13.14s-12.31-2.37-15.43-4.16l-3.08,11.76c4.12,2.17,12.34,4.25,18.92,4.25,7.34,0,14.76-1.39,20.22-6.13,5.65-5.01,7.59-12.85,7.59-22.44v-22.06c.12-7.66,2.81-13.03,6.17-16.78l-11.52-8.49h0Z"/><path class="cls-1" d="m149.45,83.54c-6.61,0-10.21-6.46-10.21-14.98,0-7.4,2.82-15,10.23-15s9.86,7.56,9.86,14.92c0,9-3.83,15.05-9.88,15.05m.04-41.06c-16.65,0-25.67,11.02-25.67,27.34v45.03h15.52v-24.69c2.74,2.86,7.18,4.46,13.13,4.46,11.1,0,22.69-8.53,22.69-26.72,0-15.92-10.56-25.41-25.67-25.41"/><path class="cls-1" d="m298.71,32.96v-11.9c-2.16-.61-4.82-1.06-8.22-1.06-4.55,0-9.88,1.3-13.81,4.99-4.43,4.12-6.27,10.73-6.27,16.73v1.9h-16.02v-2.53c-.25-12.05,11.53-8.53,12.88-8.12v-11.9c-2.16-.61-4.82-1.06-8.22-1.06-4.55,0-9.88,1.3-13.81,4.99-4.43,4.12-6.27,10.73-6.27,16.73v1.9h-6.63v11.44h6.63v38.58c0,10.59-7.37,9.05-10.65,8.53l-1.65,11.45c1.56.61,4.1,1.23,6.6,1.25,7.03.05,12-2.07,15.32-5.38,4.19-4.16,5.76-10.1,5.8-15.99l.11-38.45h15.9v38.58c.21,11.15-8.48,8.89-10.65,8.53l-1.65,11.45c1.56.61,4.1,1.23,6.6,1.25,7.03.05,12-2.07,15.32-5.38,4.19-4.16,5.76-10.1,5.8-15.99l.11-38.45h12.76v-11.44h-12.88v-2.53c.23-12.15,11.53-8.53,12.88-8.12"/><path class="cls-1" d="m394.93,220.8c-.68.05-1.23.09-1.77.09-7.67,0-15.33,0-22.99,0-6.66,0-13.32,0-19.97,0-1.49,0-3.18,0-4.01-1.25-.84-1.25-.17-2.84.42-4.23,3.76-8.89,11.33-14.78,20.78-16.14,9.39-1.37,19.25,2.03,24.52,8.45,2.66,3.23,4.42,6.73,5.56,11.01l.5,1.91-3.04.18h0Zm10.05-40.21c-11.56-7.6-24.7-10.8-39.03-9.55-18.88,1.67-33.82,10.08-44.4,25.03-10.2,14.39-13.15,30.92-8.78,49.13,4.33,18.07,15.47,31.37,33.12,39.52,7.32,3.39,15.26,5.06,24.12,5.06,2.69,0,5.46-.16,8.32-.46,20.98-2.25,36.84-13.03,47.12-32.04.39-.74.67-1.54.96-2.43.13-.38.26-.78.41-1.2l.76-2.05-3.26-.17c-.67-.05-1.21-.08-1.75-.08h-6.88c-8.48-.02-16.96-.04-25.45.06-1.82.03-3.84.68-5.43,1.74-9.3,6.27-21.22,5.71-29.63-1.42-2.39-2.03-4.06-4.37-5.08-7.13.41-.02.81-.03,1.2-.03h13.09c20.5-.02,41.01-.03,61.51.03,3.29-.03,5.03-1.56,5.05-4.63,0-1.81.08-3.63.14-5.46.14-4.01.29-8.16-.15-12.24-1.89-17.58-10.62-31.59-25.95-41.67"/><path class="cls-1" d="m325.83,182.7h0c.89-.75,2.27-1.79,3.05-2.23l2.31-1.29-3.94-2.57c-17.01-7.99-31.65-4.96-43.57,9.05,0-2.63-.02-5.14.03-7.65.03-1.37-.3-2.38-1-3.09-.95-.96-2.27-1.1-3.14-1.06-12.43.05-24.87.04-37.3,0h-.02c-.87,0-2.12.11-3.03,1.03-.69.69-1.01,1.64-1.01,2.93.05,7.99.04,15.99,0,23.99,0,1.3.33,2.25,1.02,2.94.69.67,1.65.92,2.87.96,1.12-.02,2.24,0,3.37,0,1.5.01,3.01.03,4.51-.04.76-.05.93.09.93.09,0,0,.15.22.15,1.06-.07,15.61-.07,31.22,0,46.82,0,.8-.13,1.01-.13,1.01,0,0-.16.2-1.01.12-4.62-.06-9.24-.05-13.86-.04h-5.64c-1.04,0-2.13,0-2.18.12-.12-.28-.12-1.38-.12-2.43v-13.4c0-20.09-.01-40.18.03-60.27,0-1.38-.13-2.78-1.13-3.79-1.01-1-2.42-1.13-3.41-1.13h-.04c-29.78.07-59.57.06-89.34,0-.93.04-2.37.11-3.35,1.1-.97.98-1.06,2.33-1.04,3.27.06,4.81.05,9.62.03,14.44v5.27c0,6.94.7,7.67,7.76,7.77.31,0,.54.02.73.03-.04.19-.11.45-.2.78l-9.51,34.58-2.95-11.13c-4.59-17.3-9.17-34.6-13.68-51.92-.78-3.01-2.46-4.19-5.5-4.21-7.46.14-14.13.14-20.37,0-3.5-.07-5.16,1.22-6.02,4.5-4.05,15.71-8.21,31.39-12.37,47.08l-3.16,11.96c-.33,1.21-.65,2.43-1.01,3.7-2.88-10.49-5.76-20.98-8.63-31.47-.43-1.59-.93-3.4-1-3.63.42-.23,2.39-.22,3.86-.22.8.06,2.35-.11,3.35-1.12.99-1,1.1-2.39,1.08-3.49-.05-3.52-.04-7.04-.03-10.56,0-2.89.01-5.78,0-8.68,0-.93,0-1.72,0-2.4.03-2.4.05-3.73-.93-4.7-.99-.99-2.35-.96-4.74-.92-.67,0-1.4.03-2.35.02-9.04-.03-18.07-.03-27.12-.02h-12.64c-1.01.02-2.48,0-3.48,1-.65.65-.97,1.56-.96,2.73.03,7.41.02,14.83,0,22.24v2.23c0,1.13.33,2.03.97,2.67.65.65,1.72,1,2.69.95.6,0,1.2,0,1.8,0,.99.01,2,.03,3.01-.02,1.14-.07,1.44.24,1.69,1.16.42,1.47.9,2.93,1.39,4.39.27.82.55,1.63.81,2.45l3.81,11.95c6.13,19.26,12.26,38.52,18.35,57.79.78,2.45,2.34,3.6,4.9,3.6h.07c8.64-.08,17.25-.08,25.88,0h.07c2.61,0,4.1-1.14,4.82-3.67,4.3-15.19,8.67-30.36,13.03-45.53l1.88-6.55c.26-.89.52-1.78.8-2.68,2.55,7.88,4.81,15.69,7,23.29,3.03,10.49,6.06,21,9.07,31.5.28.99,1.03,3.61,4.23,3.61h.02c9.11-.05,18.22.02,27.33-.1,1.49-.02,3.34-1.41,3.82-2.87,2.77-8.41,5.44-16.86,8.12-25.31l5.7-17.94c3.59-11.32,7.2-22.65,10.77-33.98.33-1.04.65-1.14,1.3-1.12,6.66.05,13.32.03,19.98,0h.01c.41,0,.53.07.61.04.01.05.07.21.07.57-.03,15.92-.03,31.84,0,47.78,0,.42-.06.6-.05.61-.06.02-.31.08-.76.07-1.19-.04-2.36-.02-3.53,0-1.49.02-3,.04-4.5-.04-1.55-.08-2.62.24-3.4.98-1.05,1.01-1.16,2.51-1.14,3.55.07,5.35.05,10.7.04,16.05v6.26c0,4.7.7,5.42,5.41,5.42h98.74c3.06,0,6.1-.02,9.13,0,.48,0,1.96.02,2.99-.99.67-.67.99-1.58.98-2.8-.03-8.23-.03-16.47,0-24.7,0-1.22-.32-2.14-.99-2.8-.67-.65-1.67-.96-2.78-.94-1.57.03-3.12.01-4.68,0-1.29,0-2.57-.01-3.87,0-.49,0-.51-.06-.44-.3.05-2.78.05-5.56.05-8.34,0-6.04,0-12.29.55-18.35,1.12-12.26,8.69-20.1,20.26-20.96,2.98-.23,4.17-2.02,4.95-3.75,3.81-8.43,8.68-15.08,14.89-20.31"/><path class="cls-1" d="m201,165.53h24.83c2.99,0,5.43-2.43,5.43-5.42v-21.13c0-2.99-2.43-5.42-5.43-5.42h-24.83c-2.99,0-5.42,2.43-5.42,5.42v21.13c0,2.99,2.43,5.42,5.42,5.42"/><path class="cls-1" d="m789.94,249.12c-.56-11.98-6.29-20.82-17.04-26.27-6.75-3.42-14.01-5.39-21.05-7.3l-4.2-1.15c-2.87-.81-6.57-1.98-9.6-3.91-1.91-1.21-3.01-3.2-3.04-5.44-.03-2.3,1.11-4.43,3.03-5.72,2.51-1.67,5.38-2.14,8.06-1.32,2.7.83,4.82,2.83,5.97,5.64.54,1.31,2.22,2.79,3.74,2.81,6.24.09,12.5.09,18.74.09h6.94c1.09,0,1.95-.31,2.57-.92.61-.61.92-1.46.92-2.54-.01-8.71-.01-17.42,0-26.13,0-1.1-.31-1.96-.93-2.58-.61-.61-1.46-.91-2.53-.91h-.01c-6.41.02-12.81.02-19.23,0-1.08.06-2.07.32-2.7.97-.51.52-.8,1.21-.87,2.07-9.77-5.9-20.93-7.14-34.05-3.79-13.66,3.48-20.17,11.93-23.22,18.4-4.65,9.86-4.59,22.22.14,32.26,3.46,7.34,9.79,12.81,18.82,16.25,4.25,1.62,8.69,2.86,12.98,4.05,2.07.58,4.14,1.15,6.19,1.77.85.26,1.71.5,2.57.73,2.29.63,4.46,1.23,6.47,2.16,1.84.85,3.14,2.74,3.48,5.05.36,2.46-.44,4.9-2.08,6.35-2.78,2.44-6.8,3.22-10.77,2.07-3.85-1.12-6.74-3.83-7.73-7.27-.63-2.17-1.95-3.18-4.16-3.18h-.03c-8.32.04-16.62.05-24.93,0-.89-.03-2.2.09-3.14,1.04-.7.7-1.04,1.7-1.03,3.06.06,9.1.06,18.2,0,27.3,0,.91.09,2.23,1.05,3.19.97.96,2.46,1.03,3.23,1.04,3.56-.05,7.12-.04,10.68-.03,2.23,0,4.44,0,6.65,0h1.06c1.63.05,2.87.05,3.82-.93.63-.65.88-1.52.95-2.72,6.39,4.42,13.85,6.6,22.65,6.6,1.4,0,2.85-.06,4.33-.17,10.73-.8,19.25-4.25,26.05-10.55,8.15-7.55,11.83-17.37,11.23-30.04"/><path class="cls-1" d="m674.16,221.52c-4.38-1.78-8.98-3.13-13.43-4.44-2.34-.69-4.68-1.38-7-2.13l-2.34-.74c-2.68-.83-5.45-1.69-7.89-2.93-2.19-1.12-3.72-3.2-4.06-5.57-.31-2.16.37-4.21,1.88-5.62,2.2-2.08,5.42-2.85,8.57-2.08,3.03.74,5.39,2.8,6.33,5.5.73,2.09,2.07,3.07,4.21,3.07h.04c8.14-.06,16.29-.07,24.44,0,.88,0,2.22-.09,3.17-1.04s1.06-2.31,1.04-3.24c-.07-8.23-.08-16.45,0-24.68,0-.91-.09-2.23-1.04-3.18-.96-.95-2.25-1.03-3.25-1.03-3.57.07-7.16.06-10.76.04h-4.42s-.04,0-.04,0c-4.17,0-5.28.35-6.28,3.21-8.21-5.2-17.69-6.79-29.74-5-9.43,1.4-17.11,5.4-22.83,11.9-4.7,5.33-7.37,11.68-8.17,19.41-1.62,15.77,4.58,27.77,17.93,34.72,6.97,3.63,14.52,5.63,21.67,7.36,4.02.97,7.23,1.91,10.09,2.92,2.8,1,4.18,2.93,4.21,5.9.03,3.66-1.25,5.9-3.9,6.87-1.99.72-4.46,1.08-7.57,1.11h-.13c-4.67,0-7.67-2.33-8.93-6.91-.68-2.46-2.15-3.61-4.62-3.61h-.06c-8.06.07-16.14.08-24.2,0-1.05.03-2.36.09-3.33,1.08-.98.98-1.08,2.35-1.08,3.29.08,8.93.09,17.88,0,26.81,0,.97.09,2.37,1.1,3.38,1,.99,2.41,1.06,3.48,1.08,6.1-.1,12.08-.1,17.77,0,1.2,0,2.81-.09,3.84-1.23.6-.66.9-1.52.91-2.6.19.12.38.23.57.35,1.93,1.16,3.74,2.25,5.71,3.15,4.87,2.23,10.1,3.32,16.05,3.32,2.93,0,6.03-.26,9.35-.79,18.42-2.92,30.92-15.32,32.62-32.34,1.79-17.82-4.53-29.05-19.89-35.3"/><path class="cls-1" d="m473.75,254.75c-.69,0-1.41,0-1.81-.05-.04-.41-.04-1.12-.04-1.76v-69.57c-.01-15.05-.01-30.11,0-45.17,0-1.04,0-2.61-1.07-3.68-.73-.72-1.75-1.06-3.18-1.05-11.88.1-23.75.08-35.61,0-.99.07-2.24.1-3.2,1.05-.95.95-1.04,2.29-1.03,3.21.06,4.72.05,9.45.03,14.16v5.77c0,7.18.74,7.92,8.21,7.96.26,0,.49,0,.72-.02.68-.09.91.04.92.05,0,0,.13.22.07.93-.05.54-.04,1.09-.02,1.64v113.71c0,4.2.78,4.99,4.89,4.99,5.25,0,10.5,0,15.76,0,6.07,0,12.14,0,18.21,0,3.98,0,4.78-.82,4.78-4.84v-19.72c0-6.91-.71-7.62-7.65-7.64"/><path class="cls-1" d="m513.67,220.69l.34-1.9c1.94-10.74,12.71-19.43,24.53-19.8,15.46-.51,25.24,9.61,26.9,19.83l.3,1.87h-52.07Zm52.21-44.12c-9.64-4.72-20.33-6.57-31.81-5.53-14.13,1.29-26.26,6.54-36.02,15.61-14.16,13.15-20.37,30.06-18.46,50.23,1.7,18.03,10.4,32.52,25.84,43.09,9.48,6.49,20.58,9.75,33.08,9.75,2.5,0,5.04-.13,7.65-.39,19.57-1.96,34.75-11.37,45.1-27.98.96-1.54,1.77-3.16,2.67-4.95.43-.86.88-1.75,1.37-2.69l1.23-2.35h-13.89c-7.95-.03-15.88-.04-23.84.07-2.02.03-4.21.71-5.87,1.82-8.91,5.96-20.47,5.63-28.78-.83-2.77-2.16-4.67-4.69-5.87-7.87h75.63c3.83,0,5.05-.68,5.19-4.85l.14-3.5c.2-4.52.42-9.19-.12-13.77-2.42-20.8-13.62-36.23-33.27-45.84"/><path class="cls-1" d="m305.84,88.11v.07c0,1.33.65,3.28,3.49,3.28h.26c2.7,0,3.56-1.86,3.56-3.28v-.07c0-1.49-.86-3.28-3.56-3.28h-.26c-2.84,0-3.49,1.88-3.49,3.28m11.79,6.51h-4.51v-1.67c-.44.51-1.91,1.93-4.95,1.93h-.3c-4.72,0-6.7-3.26-6.7-6.54v-.39c0-3.23,1.91-6.5,6.65-6.5h.28c2.95,0,4.44,1.12,5,1.63v-6.07h4.53v17.61h0Z"/><path class="cls-1" d="m324.56,86.68h6.84c0-.95-.46-2.3-3.38-2.3-2.34,0-3.23.95-3.47,2.3m4.14,8.24h-.86c-6.37,0-7.96-3.49-7.96-6.59v-.33c0-2.91,1.44-6.59,7.56-6.59h1.02c6.61,0,7.8,3.68,7.8,7.28v.42h-11.75c.18,1.48,1.14,2.69,3.91,2.69s2.95-1.02,3.07-1.23h4.72c0,1.07-.84,4.33-7.51,4.33"/><rect class="cls-1" x="338.57" y="77.01" width="4.53" height="17.61"/><path class="cls-1" d="m345.98,81.71h4.53v12.91h-4.53v-12.91Zm-.05-4.7h4.63v3.26h-4.63v-3.26Z"/><polygon class="cls-1" points="357 81.71 360.62 91.04 364.27 81.71 368.88 81.71 363.46 94.62 357.7 94.62 351.97 81.71 357 81.71"/><path class="cls-1" d="m373.79,86.68h6.84c0-.95-.46-2.3-3.38-2.3-2.34,0-3.23.95-3.47,2.3m4.14,8.24h-.86c-6.37,0-7.96-3.49-7.96-6.59v-.33c0-2.91,1.44-6.59,7.56-6.59h1.02c6.61,0,7.8,3.68,7.8,7.28v.42h-11.75c.18,1.48,1.14,2.69,3.91,2.69s2.95-1.02,3.07-1.23h4.72c0,1.07-.84,4.33-7.51,4.33"/><path class="cls-1" d="m387.81,81.71h4.49v2.12c.3-.63,1.56-2.4,4.21-2.4h.14c3.04,0,4.4,1.98,4.4,5,0,.56,0,.91-.02,1.47h-4.68v-.18c0-1.77-.42-2.74-1.84-2.74s-2.17,1.12-2.17,2.79v6.86h-4.53v-12.91h0Z"/><path class="cls-1" d="m402.47,90.8v-.12h4.86c.07.44.28,1.37,2.58,1.37h.05c2.02,0,2.49-.61,2.49-1.23s-.3-1.12-2.46-1.23l-1.77-.14c-4.16-.26-5.68-1.72-5.68-3.86v-.14c0-2.21,1.21-4.05,6.68-4.05h.63c6.26,0,7,2.28,7,3.95v.07h-4.75c-.14-.46-.35-1.25-2.46-1.25h-.07c-1.95,0-2.46.42-2.46,1.07,0,.72.46,1.14,2.33,1.21l1.77.07c4.65.18,5.93,1.65,5.93,3.82v.16c0,2.16-.93,4.42-7.14,4.42h-.61c-6.35,0-6.91-3.03-6.91-4.12"/><path class="cls-1" d="m501.56,143.64c3.84,0,5.1-.86,5.95-3.06h5.4v17.23h-7.04v-9.78h-4.31v-4.4h0Z"/><path class="cls-1" d="m514.88,154.53c0-2.71,1.16-5.26,8.11-6.69l2.34-.46c2.8-.56,3.11-.86,3.11-1.44v-.05c0-.6-.35-1.21-2.92-1.21-2.99,0-3.06,1.21-3.12,1.88h-7.18v-.16c0-2.25.86-6.07,9.59-6.07h1.41c7.64,0,9.59,2.34,9.59,5.61v.18c0,3.27-2.83,4.59-8.89,5.21-.9.09-1.83.23-2.57.33-3.27.44-3.75.88-3.75,1.28h15.5v4.89h-21.19v-3.29h0Z"/><path class="cls-1" d="m551.98,153.39h-8.55v-5.12h8.55v5.12Z"/><path class="cls-1" d="m559.4,143.64c3.84,0,5.1-.86,5.95-3.06h5.4v17.23h-7.04v-9.78h-4.31v-4.4h0Z"/><path class="cls-1" d="m582.33,140.47h8.52v9.66h4.12v4.7h-4.12v2.99h-6.93v-2.99h-11.49v-4.03l9.89-10.33Zm-3.64,9.66h5.23v-5.44l-5.23,5.44Z"/><path class="cls-1" d="m601.35,149.97v-.12h7.04c.07.81.37,2.89,2.85,2.89h.05c2.13,0,2.87-1.46,2.87-3.31v-8.85h7.09v9.27c0,3.5-1.5,8.27-9.4,8.27h-1c-8.18,0-9.5-4.7-9.5-8.15h0Z"/><path class="cls-1" d="m623.66,148.51v-7.92h7.04v7.92c0,1.97.74,3.94,4.38,3.94h.09c3.55,0,4.26-1.97,4.26-3.94v-7.92h7.04v7.92c0,3.38-.79,9.57-10.98,9.57h-.72c-10.58,0-11.12-6.18-11.12-9.57Z"/><path class="cls-1" d="m656.01,152.44h10.19v5.38h-17.26v-17.23h7.06v11.86h0Z"/><path class="cls-1" d="m662.06,140.59h8.55l4.51,5.72,4.63-5.72h7.55l-8.96,11.17v6.07h-7.04v-6.07l-9.24-11.17Z"/><path class="cls-1" d="m692.85,154.53c0-2.71,1.16-5.26,8.11-6.69l2.34-.46c2.8-.56,3.11-.86,3.11-1.44v-.05c0-.6-.35-1.21-2.92-1.21-2.99,0-3.06,1.21-3.12,1.88h-7.18v-.16c0-2.25.86-6.07,9.59-6.07h1.41c7.64,0,9.59,2.34,9.59,5.61v.18c0,3.27-2.83,4.59-8.89,5.21-.9.09-1.83.23-2.57.33-3.27.44-3.75.88-3.75,1.28h15.5v4.89h-21.19v-3.29h0Z"/><path class="cls-1" d="m738.75,148.81v.69c0,3.38-1.62,8.62-11.26,8.62h-1.06c-9.57,0-11.28-5.23-11.28-8.62v-.69c0-3.45,1.69-8.52,11.28-8.52h1.06c9.61,0,11.26,5.07,11.26,8.52Zm-11.81-3.45c-3.82,0-4.4,2.25-4.4,3.61v.23c0,1.41.65,3.71,4.42,3.71s4.38-2.29,4.38-3.71v-.23c0-1.37-.58-3.61-4.4-3.61h0Z"/><path class="cls-1" d="m739.96,154.53c0-2.71,1.16-5.26,8.11-6.69l2.34-.46c2.8-.56,3.11-.86,3.11-1.44v-.05c0-.6-.35-1.21-2.92-1.21-2.99,0-3.06,1.21-3.12,1.88h-7.18v-.16c0-2.25.86-6.07,9.59-6.07h1.41c7.64,0,9.59,2.34,9.59,5.61v.18c0,3.27-2.83,4.59-8.89,5.21-.9.09-1.83.23-2.57.33-3.27.44-3.75.88-3.75,1.28h15.5v4.89h-21.19v-3.29h0Z"/><path class="cls-1" d="m771.93,140.47h8.52v9.66h4.12v4.7h-4.12v2.99h-6.93v-2.99h-11.49v-4.03l9.89-10.33Zm-3.64,9.66h5.23v-5.44l-5.23,5.44Z"/><path class="cls-1" d="m225.28,319.86h-10.62v2.21h10.3v4.56h-10.3v5.88h-7.05v-17.15h17.68v4.5h0Z"/><path class="cls-1" d="m227.31,332.51v-17.15h7.03v17.15h-7.03Z"/><path class="cls-1" d="m243.74,332.51h-6.87v-17.15h7.14l8.8,8.78v-8.78h6.87v17.15h-6.71l-9.24-9.22v9.22h0Z"/><path class="cls-1" d="m261.37,326.82v-.07h7.56c.07.6.27,1.77,3.22,1.77h.14c2.86,0,3.25-.67,3.25-1.29,0-.69-.32-1.2-3.09-1.27l-2.47-.05c-6.73-.11-8.34-2.56-8.34-5.37v-.18c0-3.13,2.14-5.25,9.82-5.25h1.08c8.62,0,10.07,2.9,10.07,5.58v.05h-7.4c-.11-.62-.53-1.5-3.16-1.5h-.16c-2.65,0-3.04.48-3.04,1.15s.46,1.08,2.93,1.15l2.53.05c6.98.11,8.55,2.05,8.55,5.23v.28c0,2.95-1.4,5.69-10.32,5.69h-.53c-9.7,0-10.65-3.55-10.65-5.97h0Z"/><path class="cls-1" d="m299.92,315.37c4.91,0,6.57,1.68,6.57,3.99v.11c0,2.42-2.14,3.34-3.43,3.53,1.75.26,4.42,1.18,4.42,4.22v.21c0,3.04-1.93,5.09-7.56,5.09h-15.28v-17.15h15.28Zm-8.25,6.41h5.92c1.27,0,1.66-.39,1.66-1.04v-.05c0-.71-.39-1.06-1.66-1.06h-5.92v2.14h0Zm0,6.29h6.45c1.59,0,1.82-.67,1.82-1.2v-.07c0-.55-.23-1.11-1.82-1.11h-6.45v2.37h0Z"/><path class="cls-1" d="m308.96,323.25v-7.88h7.01v7.88c0,1.96.74,3.92,4.35,3.92h.09c3.53,0,4.24-1.96,4.24-3.92v-7.88h7.01v7.88c0,3.37-.78,9.52-10.93,9.52h-.71c-10.53,0-11.06-6.16-11.06-9.52Z"/><path class="cls-1" d="m356.52,328.14v3.16c0,.67.09.9.26,1.11v.11h-7.24c-.07-.09-.14-.37-.14-.99v-1.45c0-2.21-.76-2.65-3.22-2.65h-5.03v5.09h-7.03v-17.15h15.12c6.18,0,7.12,2.3,7.12,4.75v.11c0,2.6-2.12,3.66-3.96,4.03,2.14.26,4.13,1.15,4.13,3.87h0Zm-9.17-5.53c1.45,0,1.73-.65,1.73-1.29v-.02c0-.6-.28-1.2-1.73-1.2h-6.2v2.51h6.2Z"/><path class="cls-1" d="m356.17,315.37h8.5l4.5,5.69,4.61-5.69h7.51l-8.92,11.11v6.04h-7.01v-6.04l-9.19-11.11Z"/><path class="cls-1" d="m394.47,332.51h-7.03v-17.15h13c6.94,0,8.59,2.4,8.59,5.83v.32c0,3.53-1.75,6.08-8.59,6.08h-5.97v4.91h0Zm5.28-9.61c1.66,0,1.98-.71,1.98-1.43v-.05c0-.62-.32-1.36-1.98-1.36h-5.28v2.84h5.28Z"/><path class="cls-1" d="m416.76,329.96l-1.18,2.56h-7.03l8.14-17.15h9.1l8.23,17.15h-7.45l-1.18-2.56h-8.64,0Zm1.96-4.31h4.72l-2.35-5.21-2.37,5.21Z"/><path class="cls-1" d="m456.81,328.14v3.16c0,.67.09.9.26,1.11v.11h-7.24c-.07-.09-.14-.37-.14-.99v-1.45c0-2.21-.76-2.65-3.23-2.65h-5.03v5.09h-7.03v-17.15h15.12c6.18,0,7.12,2.3,7.12,4.75v.11c0,2.6-2.12,3.66-3.97,4.03,2.14.26,4.13,1.15,4.13,3.87h0Zm-9.17-5.53c1.45,0,1.73-.65,1.73-1.29v-.02c0-.6-.28-1.2-1.73-1.2h-6.2v2.51h6.2Z"/><path class="cls-1" d="m458.83,315.37h7.01v6.38l6.5-6.38h8.02l-7.95,7.7,8.62,9.45h-8.76l-6.43-7.37v7.37h-7.01v-17.15Z"/><path class="cls-1" d="m484.07,332.51h-3.27v-5.48h7.08v4.45c0,1.73-.92,3.64-1.55,4.7h-4.08c.62-.95,1.52-2.63,1.82-3.66h0Z"/><path class="cls-1" d="m502.99,327.17h10.14v5.35h-17.17v-17.15h7.03v11.8Z"/><path class="cls-1" d="m538.13,323.55v.69c0,3.37-1.64,8.58-11.45,8.58h-1.06c-9.75,0-11.43-5.21-11.43-8.58v-.69c0-3.43,1.71-8.48,11.43-8.48h1.06c9.8,0,11.45,5.05,11.45,8.48Zm-11.98-3.41c-4.13,0-4.61,2.24-4.61,3.6v.23c0,1.4.6,3.69,4.63,3.69s4.59-2.28,4.59-3.69v-.23c0-1.36-.55-3.6-4.61-3.6Z"/><path class="cls-1" d="m546.77,332.51h-6.87v-17.15h7.14l8.8,8.78v-8.78h6.87v17.15h-6.71l-9.24-9.22v9.22h0Z"/><path class="cls-1" d="m576.06,315.37c9.61,0,11.69,4.08,11.69,8.16v.69c0,4.08-2.08,8.3-11.69,8.3h-10.81v-17.15h10.81Zm-1.04,12.4c4.79,0,5.35-2.17,5.35-3.8v-.14c0-1.55-.55-3.73-5.35-3.73h-2.74v7.67h2.74Z"/><path class="cls-1" d="m612.68,323.55v.69c0,3.37-1.64,8.58-11.45,8.58h-1.06c-9.75,0-11.43-5.21-11.43-8.58v-.69c0-3.43,1.71-8.48,11.43-8.48h1.06c9.8,0,11.45,5.05,11.45,8.48Zm-11.98-3.41c-4.13,0-4.61,2.24-4.61,3.6v.23c0,1.4.6,3.69,4.63,3.69s4.59-2.28,4.59-3.69v-.23c0-1.36-.55-3.6-4.61-3.6Z"/><path class="cls-1" d="m621.32,332.51h-6.87v-17.15h7.14l8.8,8.78v-8.78h6.87v17.15h-6.71l-9.24-9.22v9.22h0Z"/></svg>